<svg xmlns="http://www.w3.org/2000/svg" viewBox="0 0 496 512"><path d="M487.4 320.5c11-40.8 11.8-84.9 0-128.7C452 59.6 315.9-18.9 183.4 16.5 81.2 43.9 11 131.1.7 230.3h41.9c10-80.5 67.6-150.9 150.9-173.2 103-27.6 208.6 28.1 245.5 125.6l-40.8 10.9a162.48 162.48 0 00-101.5-92.8l-7.5 42.5c35.4 13 64.1 42.5 74.6 81.6 15.3 57-13.2 115.5-64.9 139.8l11.2 41.6c68-28 108.8-98.7 99.1-171.5l40.7-10.9c4.4 27.8 2.8 55.5-3.7 81.5l41.2 15.1z" fill-rule="evenodd" clip-rule="evenodd"/><path d="M311.9 495.5c-132.4 35.4-268.5-43.1-304-175.3-4.1-15.4-6.7-30.9-7.9-46.3h41.9c1.1 11.5 3.1 23.1 6.2 34.7 3.3 12.1 7.5 23.7 12.7 34.7l37.4-22.4c-3.1-7.3-5.8-14.8-7.9-22.7-23.3-86.8 28.3-176 115.2-199.3 16.5-4.4 33-6.1 49.2-5.4l-7.5 42.5c-10.1 0-20.4 1.4-30.7 4.1-64.2 17.2-102.2 83-85 147.1 1.1 3.9 2.3 7.8 3.7 11.5L183 270l-14.4-38.2 45.1-46.4 57.1-12.3 16.5 20.3L261 220l-22.9 7.2-16.4 16.8 8 22.3 16.3 17.3 23-6.1 16.4-18 35.7-11.3 10.6 23.9-36.8 45.2-61.8 19.7-27.7-30.8-48.3 29c24.7 28.2 61.9 43.8 100.5 40.6l11.2 41.6a163.13 163.13 0 01-148.7-60L83 379.7c49 64.4 133.9 96.3 217 74.1 59.8-16 106.4-56.8 131.6-108.3l41.3 15c-30 64.2-87.1 115.2-161 135z"/></svg>