<svg xmlns="http://www.w3.org/2000/svg" viewBox="0 0 496 495.3"><path d="M496 247.54v.47c0 1.43 0 2.84-.05 4.27v.28c0 .94 0 1.87-.07 2.81 0 1.1-.08 2.18-.12 3.26s-.09 2-.16 3c-.07 1.51-.18 3-.3 4.49a214.2 214.2 0 01-1.41 13.78c-11.35 86-67.77 162.17-150.88 196.39l-17-63.31c78.68-37 122-126 98.77-212.75A182.55 182.55 0 00311.22 76.02l11.41-64.68A247.29 247.29 0 01477.1 152.57h.06a246.22 246.22 0 0116.76 62.7h-.08a247.16 247.16 0 012.16 28.48v3.79z" fill-rule="evenodd"/><path d="M183.68 323.93l-73.5 44.14a183.45 183.45 0 00152.94 61.79l17.05 63.3A248.09 248.09 0 0180 429.84a265.05 265.05 0 01-5-4.76.42.42 0 01-.13-.11l-2.42-2.32q-1.55-1.55-3.07-3.13t-3-3.17c-.64-.68-1.28-1.37-1.9-2.07l-2-2.21a248.2 248.2 0 01-42-65.74 255.46 255.46 0 01-12-34.54q-3.2-12.14-5.2-24.2l-.62-4c-.14-.86-.26-1.75-.37-2.61-.09-.6-.17-1.21-.24-1.82a244.43 244.43 0 01-.38-60c.12-1 .24-2.07.38-3.1l.41-3.11c.09-.64.18-1.29.29-1.93 0-.3.09-.61.14-.91.39-2.65.85-5.28 1.33-7.9A248.12 248.12 0 01258.71.23L247.3 64.91a184.3 184.3 0 00-46.72 6.24C102.87 97.33 45 197.47 71.22 295.02c1.67 5.93 3.5 11.87 5.63 17.5l72.74-43.68-21.91-58.13 68.63-70.62 86.9-18.72 25.11 30.9-40 40.48-34.85 11-25 25.56 12.17 33.94 24.81 26.33 35-9.28 25-27.4 54.31-17.25 16.13 36.37-56 68.79-94 30z"/></svg>